<svg xmlns="http://www.w3.org/2000/svg" width="16" height="16" viewBox="0 0 16 16">
    <g fill="none" fill-rule="evenodd">
        <path d="M0 0h16v16H0z"/>
        <path fill="#3A3A3A" d="M8.002 13.429h.42c.557 0 1.009-.44 1.009-.572v.572c0-.316-.44-.572-1.003-.572h-.14l1.714-1.714h.14c.554 0 1.003-.439 1.003-.572v.572c0-.316-.449-.572-.857-.572l1.143-1.428c0-.286.857-.288.857-.288s1.43.028 2.287.002C15.432 8.883 16 8.286 16 8c.003-.286-.568-.857-1.425-.857h-2.287s-.857 0-.857-.286L10.288 5.43c.012 0 0 0 0 0 .473 0 .857-.44.857-.572v.572c0-.316-.438-.572-1.003-.572h-.14L8.287 3.143h.14c.555 0 1.004-.439 1.004-.572v.572c0-.316-.444-.572-.992-.572h-.46L6.253.534S5.895 0 5.39 0l-.441.029s.482.828 1.625 3.4C7.716 6 7.716 6 7.716 6.857l-.572.286H4.572c0 .055-.285 0-1.428.286L1.453 5.547S.857 4.857 0 4.857l1.429 2.857L0 8l1.429.286L0 11.143c.857 0 1.363-.44 1.363-.44l1.78-2.132c1.144.286 1.43.286 1.43.286h2.571l.572.286c0 .857 0 .857-1.143 3.428C5.43 15.143 4.977 16 4.977 16h.412s.516-.108.863-.506l1.75-2.065z"/>
    </g>
</svg>
